<svg id="Capa_1" data-name="Capa 1" xmlns="http://www.w3.org/2000/svg" viewBox="0 0 480.74 480.74"><defs><style>.cls-1{fill:#fff;}</style></defs><path class="cls-1" d="M349.36,1a8,8,0,0,0-10.89,10.88,240.15,240.15,0,0,1,0,233.32C274,361.15,127.84,402.88,11.94,338.45A8,8,0,0,0,1,349.34a256,256,0,0,0,447.23.05C517.14,225.89,472.87,69.92,349.36,1ZM365,419.17c-107.5,77.55-257.51,53.26-335-54.24a256.16,256.16,0,0,0,197.43,0C357.85,310.41,419.47,160.4,365,29.88a239.88,239.88,0,0,1,54.24,54.25C496.73,191.63,472.45,341.63,365,419.17Z"/></svg>