<svg id="Layer_1" data-name="Layer 1" xmlns="http://www.w3.org/2000/svg" viewBox="0 0 17 6"><path d="M2.06,1.19H3.28c.8,0,1.38.29,1.38,1.11S4.08,3.47,3.28,3.47H2.56V5.13h-.5ZM3.21,3.06c.61,0,1-.25,1-.76s-.34-.7-1-.7H2.56V3.06Zm.37,0,1.2,2.07H4.21l-1-1.8Z"/><path d="M5.75,1.19H8.18v.43H6.25V2.85H7.88v.42H6.25V4.7h2v.43H5.75Z"/><path d="M10.21,1.62H8.91V1.19H12v.43h-1.3V5.13h-.5Z"/><path d="M12.55,3.14c0-1.27.62-2,1.51-2s1.51.75,1.51,2S15,5.2,14.06,5.2,12.55,4.43,12.55,3.14Zm2.5,0c0-1-.4-1.57-1-1.57s-1,.58-1,1.57.4,1.62,1,1.62S15.05,4.15,15.05,3.14Z"/></svg>