<svg xmlns="http://www.w3.org/2000/svg" viewBox="0 0 36 36"><defs><style>.cls-1{opacity:0.7;}.cls-2{fill:#919191;}</style></defs><g id="Layer_2" data-name="Layer 2"><g id="Layer_1-2" data-name="Layer 1"><rect class="cls-1" width="36" height="36" rx="18"/><path class="cls-2" d="M19.53,9.86a6.61,6.61,0,0,0-6.62,6.61,6.54,6.54,0,0,0,1.47,4.15l-4.31,4.31a.71.71,0,0,0,1,1l4.31-4.31a6.54,6.54,0,0,0,4.15,1.47,6.62,6.62,0,0,0,0-13.23Zm0,12.21a5.6,5.6,0,1,1,5.59-5.6A5.6,5.6,0,0,1,19.53,22.07Zm3-6.36H20.19V13.42a.84.84,0,0,0-.66-.51.51.51,0,0,0-.51.51v2.29H16.47c-.28.26-.51.48-.51.76a.39.39,0,0,0,.51.41H19v2.65a.51.51,0,0,0,.51.51.84.84,0,0,0,.66-.51V16.88h2.39a.39.39,0,0,0,.51-.41C23.09,16.19,22.86,16,22.58,15.71Z"/></g></g></svg>